<svg xmlns="http://www.w3.org/2000/svg" viewBox="0 0 900 760" role="img" aria-labelledby="title desc">
  <title id="title">Coconut, dates, and wheat ingredients</title>
  <desc id="desc">A warm bakery ingredient scene with coconut, dates, wheat, and bread slices.</desc>
  <defs>
    <linearGradient id="bg" x1="0" x2="1" y1="0" y2="1">
      <stop offset="0" stop-color="#fff8ec"/>
      <stop offset="0.52" stop-color="#f2dfbd"/>
      <stop offset="1" stop-color="#c98d35"/>
    </linearGradient>
    <linearGradient id="bread" x1="0" x2="1" y1="0" y2="1">
      <stop offset="0" stop-color="#f8d792"/>
      <stop offset="1" stop-color="#a85f22"/>
    </linearGradient>
    <filter id="shadow" x="-20%" y="-20%" width="140%" height="140%">
      <feDropShadow dx="0" dy="24" stdDeviation="22" flood-color="#5b3516" flood-opacity="0.22"/>
    </filter>
  </defs>
  <rect width="900" height="760" fill="url(#bg)"/>
  <circle cx="745" cy="118" r="160" fill="#fff7df" opacity="0.42"/>
  <circle cx="130" cy="665" r="210" fill="#fffaf0" opacity="0.35"/>
  <g filter="url(#shadow)">
    <ellipse cx="455" cy="608" rx="310" ry="72" fill="#7b431e" opacity="0.18"/>
    <path d="M190 485c28-142 128-231 284-231 154 0 246 84 279 231 16 70-22 121-94 121H285c-71 0-110-51-95-121Z" fill="url(#bread)"/>
    <path d="M238 492c24-111 108-178 236-178 126 0 201 64 230 178 9 35-12 61-47 61H285c-37 0-55-26-47-61Z" fill="#ffe4a8" opacity="0.72"/>
    <path d="M322 358c42-24 92-36 150-36 58 0 106 11 146 34" fill="none" stroke="#8b4a1f" stroke-width="18" stroke-linecap="round" opacity="0.28"/>
  </g>
  <g filter="url(#shadow)">
    <circle cx="232" cy="290" r="94" fill="#754318"/>
    <circle cx="232" cy="290" r="67" fill="#f8faf0"/>
    <circle cx="232" cy="290" r="36" fill="#d7a75d"/>
  </g>
  <g filter="url(#shadow)">
    <ellipse cx="660" cy="330" rx="50" ry="70" fill="#6f3719" transform="rotate(-21 660 330)"/>
    <ellipse cx="724" cy="385" rx="48" ry="68" fill="#87451f" transform="rotate(19 724 385)"/>
    <ellipse cx="608" cy="416" rx="44" ry="62" fill="#9a5525" transform="rotate(-10 608 416)"/>
    <path d="M647 306c11 28 6 54-14 78" stroke="#d09245" stroke-width="6" stroke-linecap="round" opacity="0.55"/>
  </g>
  <g fill="none" stroke="#8c6d26" stroke-width="9" stroke-linecap="round">
    <path d="M340 214c-34-72-42-129-24-170"/>
    <path d="M384 212c-15-82-6-139 27-174"/>
    <path d="M425 217c5-77 26-128 65-153"/>
  </g>
  <g fill="#d6a642">
    <ellipse cx="320" cy="94" rx="12" ry="32" transform="rotate(-23 320 94)"/>
    <ellipse cx="358" cy="82" rx="12" ry="32" transform="rotate(-3 358 82)"/>
    <ellipse cx="420" cy="82" rx="12" ry="32" transform="rotate(13 420 82)"/>
    <ellipse cx="485" cy="107" rx="12" ry="32" transform="rotate(28 485 107)"/>
  </g>
</svg>
