<svg xmlns="http://www.w3.org/2000/svg" viewBox="0 0 760 760" role="img" aria-labelledby="title desc">
  <title id="title">Mahimy bread pack</title>
  <desc id="desc">A premium bread pack with slices and ingredient accents.</desc>
  <defs>
    <linearGradient id="pack" x1="0" x2="1" y1="0" y2="1">
      <stop offset="0" stop-color="#ffffff"/>
      <stop offset="0.55" stop-color="#fff0c6"/>
      <stop offset="1" stop-color="#d99b38"/>
    </linearGradient>
    <linearGradient id="label" x1="0" x2="1" y1="0" y2="1">
      <stop offset="0" stop-color="#21311f"/>
      <stop offset="1" stop-color="#496b2a"/>
    </linearGradient>
    <filter id="shadow" x="-25%" y="-25%" width="150%" height="150%">
      <feDropShadow dx="0" dy="30" stdDeviation="24" flood-color="#4b2a0d" flood-opacity="0.22"/>
    </filter>
  </defs>
  <rect width="760" height="760" fill="none"/>
  <g filter="url(#shadow)">
    <path d="M223 112h312c36 0 66 30 66 66v430c0 36-30 66-66 66H223c-36 0-66-30-66-66V178c0-36 30-66 66-66Z" fill="url(#pack)"/>
    <path d="M157 236h444v102H157z" fill="url(#label)"/>
    <text x="379" y="293" text-anchor="middle" font-family="Arial, Helvetica, sans-serif" font-size="44" font-weight="700" fill="#fff">Mahimy</text>
    <text x="379" y="330" text-anchor="middle" font-family="Arial, Helvetica, sans-serif" font-size="22" font-weight="700" fill="#f9d77e">COCONUT MILK BREAD</text>
    <rect x="208" y="391" width="342" height="190" rx="34" fill="#fff9e9" stroke="#e1ad4d" stroke-width="6"/>
    <path d="M276 529c14-72 61-116 133-116 74 0 119 43 135 116 6 25-8 42-34 42H310c-27 0-39-17-34-42Z" fill="#d58a32"/>
    <path d="M303 523c12-47 46-74 102-74 55 0 87 26 99 74 3 13-5 22-18 22H322c-14 0-22-9-19-22Z" fill="#ffd58a"/>
    <circle cx="248" cy="171" r="18" fill="#1fa434"/>
    <ellipse cx="286" cy="162" rx="16" ry="27" fill="#23c24a" transform="rotate(54 286 162)"/>
  </g>
</svg>
