<svg xmlns="http://www.w3.org/2000/svg" viewBox="0 0 900 660" role="img" aria-labelledby="title desc">
  <title id="title">Fresh bread quality scene</title>
  <desc id="desc">Fresh sliced bread on a bakery table with wheat and clean ingredient accents.</desc>
  <defs>
    <linearGradient id="bg" x1="0" x2="1" y1="0" y2="1">
      <stop offset="0" stop-color="#fffaf0"/>
      <stop offset="1" stop-color="#ead0a0"/>
    </linearGradient>
    <linearGradient id="loaf" x1="0" x2="1" y1="0" y2="1">
      <stop offset="0" stop-color="#f6ca75"/>
      <stop offset="1" stop-color="#9c5520"/>
    </linearGradient>
    <filter id="shadow" x="-20%" y="-20%" width="140%" height="140%">
      <feDropShadow dx="0" dy="26" stdDeviation="20" flood-color="#5a3517" flood-opacity="0.2"/>
    </filter>
  </defs>
  <rect width="900" height="660" fill="url(#bg)"/>
  <circle cx="770" cy="130" r="135" fill="#ffffff" opacity="0.35"/>
  <circle cx="95" cy="590" r="190" fill="#c8963a" opacity="0.12"/>
  <g filter="url(#shadow)">
    <ellipse cx="458" cy="520" rx="290" ry="58" fill="#7a431f" opacity="0.18"/>
    <path d="M190 388c31-132 129-211 268-211s235 77 268 211c14 59-19 102-79 102H270c-60 0-94-43-80-102Z" fill="url(#loaf)"/>
    <path d="M245 395c27-88 102-140 211-140 111 0 182 51 211 140 9 28-9 49-39 49H282c-30 0-46-21-37-49Z" fill="#ffe1a3" opacity="0.68"/>
    <path d="M312 438c-9-82 19-145 83-187" fill="none" stroke="#7b3c16" stroke-width="15" opacity="0.2" stroke-linecap="round"/>
    <path d="M458 444c-3-86 29-148 96-187" fill="none" stroke="#7b3c16" stroke-width="15" opacity="0.2" stroke-linecap="round"/>
  </g>
  <g fill="none" stroke="#94712b" stroke-width="8" stroke-linecap="round">
    <path d="M713 420c-48-93-64-175-48-247"/>
    <path d="M755 410c-24-103-17-186 22-248"/>
  </g>
  <g fill="#c8963a">
    <ellipse cx="664" cy="199" rx="11" ry="31" transform="rotate(-22 664 199)"/>
    <ellipse cx="707" cy="177" rx="11" ry="31" transform="rotate(-5 707 177)"/>
    <ellipse cx="778" cy="186" rx="11" ry="31" transform="rotate(19 778 186)"/>
  </g>
  <g>
    <circle cx="196" cy="197" r="58" fill="#fffdf3"/>
    <circle cx="196" cy="197" r="36" fill="#d4a15a"/>
    <circle cx="196" cy="197" r="13" fill="#83501f"/>
  </g>
</svg>
